<svg width="28" height="28" viewBox="0 0 28 28" fill="none" xmlns="http://www.w3.org/2000/svg">
<rect opacity="0.25" x="0.583333" y="0.583333" width="26.8333" height="26.8333" rx="5.63889" stroke="#2B2B2B" stroke-width="1.16667"/>
<path d="M14.0785 12.4375C13.1753 12.4375 12.4382 13.1746 12.4382 14.0777C12.4382 14.9809 13.1753 15.7179 14.0785 15.7179C14.9816 15.7179 15.7187 14.9809 15.7187 14.0777C15.7187 13.1746 14.9816 12.4375 14.0785 12.4375ZM18.9979 14.0777C18.9979 13.3985 19.004 12.7254 18.9659 12.0475C18.9277 11.26 18.7481 10.561 18.1722 9.98519C17.5951 9.4081 16.8975 9.22968 16.11 9.19154C15.4307 9.15339 14.7577 9.15955 14.0797 9.15955C13.4005 9.15955 12.7274 9.15339 12.0494 9.19154C11.2619 9.22968 10.563 9.40933 9.98714 9.98519C9.41005 10.5623 9.23164 11.26 9.19349 12.0475C9.15535 12.7267 9.1615 13.3997 9.1615 14.0777C9.1615 14.7557 9.15535 15.43 9.19349 16.108C9.23164 16.8955 9.41128 17.5944 9.98714 18.1703C10.5642 18.7474 11.2619 18.9258 12.0494 18.9639C12.7286 19.0021 13.4017 18.9959 14.0797 18.9959C14.7589 18.9959 15.432 19.0021 16.11 18.9639C16.8975 18.9258 17.5964 18.7461 18.1722 18.1703C18.7493 17.5932 18.9277 16.8955 18.9659 16.108C19.0052 15.43 18.9979 14.7569 18.9979 14.0777V14.0777ZM14.0785 16.6014C12.6819 16.6014 11.5548 15.4743 11.5548 14.0777C11.5548 12.6811 12.6819 11.554 14.0785 11.554C15.475 11.554 16.6021 12.6811 16.6021 14.0777C16.6021 15.4743 15.475 16.6014 14.0785 16.6014ZM16.7055 12.0401C16.3794 12.0401 16.1161 11.7768 16.1161 11.4507C16.1161 11.1246 16.3794 10.8613 16.7055 10.8613C17.0316 10.8613 17.2949 11.1246 17.2949 11.4507C17.295 11.5281 17.2798 11.6048 17.2502 11.6763C17.2206 11.7479 17.1772 11.8129 17.1225 11.8677C17.0677 11.9224 17.0027 11.9658 16.9312 11.9954C16.8596 12.025 16.7829 12.0402 16.7055 12.0401V12.0401Z" fill="#0D1B2A"/>
</svg>
