<svg width="28" height="28" viewBox="0 0 28 28" fill="none" xmlns="http://www.w3.org/2000/svg">
<rect opacity="0.25" x="0.583333" y="0.583333" width="26.8333" height="26.8333" rx="5.63889" stroke="#2B2B2B" stroke-width="1.16667"/>
<g clip-path="url(#clip0_110_388)">
<path d="M10.558 11.7826C11.2346 11.7826 11.783 11.2343 11.783 10.5578C11.783 9.88137 11.2346 9.33301 10.558 9.33301C9.88146 9.33301 9.33301 9.88137 9.33301 10.5578C9.33301 11.2343 9.88146 11.7826 10.558 11.7826Z" fill="#0D1B2A"/>
<path d="M11.5789 12.6006H9.53718C9.42448 12.6006 9.33301 12.692 9.33301 12.8047V18.9287C9.33301 19.0414 9.42448 19.1329 9.53718 19.1329H11.5789C11.6916 19.1329 11.783 19.0414 11.783 18.9287V12.8047C11.783 12.692 11.6916 12.6006 11.5789 12.6006Z" fill="#0D1B2A"/>
<path d="M17.6619 12.2608C16.7894 11.9619 15.6981 12.2244 15.0437 12.6952C15.0212 12.6074 14.9412 12.5421 14.8461 12.5421H12.8047C12.692 12.5421 12.6006 12.6335 12.6006 12.7462V18.8702C12.6006 18.9829 12.692 19.0744 12.8047 19.0744H14.8461C14.9588 19.0744 15.0502 18.9829 15.0502 18.8702V14.4691C15.3801 14.1849 15.8051 14.0943 16.153 14.2421C16.4902 14.3846 16.6833 14.7324 16.6833 15.1958V18.8702C16.6833 18.9829 16.7747 19.0744 16.8874 19.0744H18.9288C19.0415 19.0744 19.1329 18.9829 19.1329 18.8702V14.7847C19.1097 13.1071 18.3205 12.4861 17.6619 12.2608Z" fill="#0D1B2A"/>
</g>
<defs>
<clipPath id="clip0_110_388">
<rect width="9.8" height="9.8" fill="white" transform="translate(9.33301 9.33301)"/>
</clipPath>
</defs>
</svg>
