<svg width="88" height="25" viewBox="0 0 88 25" fill="none" xmlns="http://www.w3.org/2000/svg">
<path d="M1.36719 24.4424H4.57418V15.6957C3.5808 15.5774 2.51803 15.4743 1.36719 15.3911V24.4424Z" fill="#0D1B2A"/>
<path d="M4.57534 12.2064H7.06977V9.40834H4.57534V4.65167H1.36835V9.40834H0L0 12.2064H1.36835V13.1573C2.51873 13.24 3.58149 13.3429 4.57534 13.4609V12.2064Z" fill="#0D1B2A"/>
<path d="M17.4033 24.6279H20.6502V18.8041C19.4864 18.6551 18.4147 18.4856 17.4033 18.3039V24.6279Z" fill="#0D1B2A"/>
<path d="M8.55762 24.6279H11.8045V18.3344C11.8045 17.9057 11.8212 17.5118 11.8534 17.1506C10.7964 16.9207 9.71448 16.6937 8.55762 16.4816V24.6279Z" fill="#0D1B2A"/>
<path d="M12.4838 12.8816C12.9455 12.2313 13.744 11.9061 14.8794 11.9061C15.7642 11.9061 16.4064 12.1398 16.8057 12.6077C17.2049 13.0751 17.4048 13.8302 17.4048 14.8724V16.0642C18.4157 16.2459 19.4879 16.4151 20.6516 16.5645V14.5919C20.6516 12.7746 20.2476 11.4518 19.4394 10.6232C18.4869 9.6701 17.217 9.19342 15.6296 9.19342C14.2346 9.19342 12.9599 9.67461 11.8057 10.6368V6.92236e-05H8.55859V14.2426C9.72208 14.4554 10.8096 14.6834 11.8714 14.9143C11.9684 14.013 12.1725 13.3354 12.4838 12.8816Z" fill="#0D1B2A"/>
<path d="M22.1387 24.4414H25.3586V19.1725C24.2078 19.1225 23.1393 19.0536 22.1387 18.9691V24.4414Z" fill="#0D1B2A"/>
<path d="M25.3596 15.6941C25.3596 13.2365 26.2373 12.0074 27.9928 12.0074C28.5748 12.0074 29.171 12.2108 29.7816 12.6173L31.2556 9.88557C30.3303 9.37286 29.4429 9.11639 28.5938 9.11639C27.9546 9.11639 27.4012 9.22705 26.9337 9.44789C26.4759 9.66001 25.9511 10.0536 25.3596 10.6283V9.47432H22.1396V16.7398C23.1401 16.8242 24.2083 16.8938 25.3596 16.9443V15.6941Z" fill="#0D1B2A"/>
<path d="M33.5307 22.9568C34.7995 24.1946 36.4813 24.8135 38.577 24.8135C39.3072 24.8135 39.9849 24.7425 40.6097 24.6011C41.2346 24.4598 41.8159 24.2366 42.3542 23.9315C42.8925 23.6267 43.3971 23.2376 43.8683 22.7645C44.339 22.2917 44.7859 21.7236 45.2091 21.0606L42.4698 19.6548C41.8064 20.6097 41.2154 21.2639 40.6962 21.6176C40.1676 21.9713 39.4995 22.148 38.6923 22.148C37.6542 22.148 36.8034 21.8387 36.1403 21.2196C35.5812 20.6906 35.2296 20.0054 35.0805 19.1683C34.0289 19.2138 32.9116 19.2447 31.7158 19.2579C31.9287 20.7423 32.5325 21.976 33.5307 22.9568Z" fill="#0D1B2A"/>
<path d="M35.6937 13.2002C35.8955 12.9084 36.1382 12.6587 36.4218 12.4509C36.7051 12.2435 37.0201 12.0842 37.3661 11.9736C37.7121 11.8631 38.0821 11.8077 38.4763 11.8077C40.2064 11.8077 41.2972 12.6033 41.749 14.1947H35.2324C35.3381 13.8234 35.4919 13.4921 35.6937 13.2002ZM35.0162 16.6349H39.4738C41.6075 16.4242 43.4306 16.1462 45.0924 15.8369C45.0747 13.7523 44.4799 12.1168 43.3063 10.9326C42.1047 9.72123 40.4708 9.1158 38.4042 9.1158C36.3568 9.1158 34.7132 9.73893 33.4733 10.9854C32.2431 12.2498 31.6279 13.9031 31.6279 15.9452C31.6279 16.3208 31.6497 16.6825 31.6917 17.0312C32.8863 17.0183 34.0024 16.9876 35.0526 16.9423C35.0382 16.8413 35.0247 16.7401 35.0162 16.6349Z" fill="#0D1B2A"/>
<path d="M45.0792 18.6875L45.092 18.0684C43.861 18.297 42.5405 18.5079 41.0723 18.6875H45.0792Z" fill="#0D1B2A"/>
<path d="M50.166 14.5564C50.3353 13.8898 50.6581 13.2999 51.14 12.7896C51.8923 12.0116 52.828 11.6223 53.9472 11.6223C55.1338 11.6223 56.0984 12.0072 56.8412 12.7764C56.9811 12.9245 57.1033 13.0826 57.2169 13.2459C58.3809 13.0892 59.6394 12.9526 61.023 12.8431V9.28828H57.7526V10.787C56.4503 9.54924 54.9794 8.93034 53.3393 8.93034C51.4389 8.93034 49.8569 9.57591 48.5933 10.8666C47.4157 12.0694 46.7874 13.5524 46.707 15.3154C47.6581 15.1179 48.57 14.9136 49.4756 14.7107C49.7051 14.6592 49.9352 14.6078 50.166 14.5564Z" fill="#0D1B2A"/>
<path d="M57.9549 17.8247C57.9549 19.0361 57.5835 20.0351 56.8409 20.8218C56.0979 21.5823 55.1235 21.9624 53.9178 21.9624C52.7893 21.9624 51.8534 21.5691 51.1106 20.7819C50.3872 20.004 50.0255 18.9962 50.0255 17.7584C50.0255 17.4217 50.0606 17.1027 50.1232 16.7976C49.9219 16.8425 49.721 16.8875 49.5206 16.9324C48.5992 17.1388 47.6706 17.3465 46.7015 17.5473C46.6999 17.6176 46.6973 17.6872 46.6973 17.7584C46.6973 19.73 47.3291 21.3744 48.593 22.6917C49.8664 23.9826 51.4772 24.6279 53.4259 24.6279C54.9691 24.6279 56.4114 24.0534 57.7524 22.9038V24.2565H61.0225V15.0705C59.683 15.1767 58.4618 15.3088 57.3293 15.4596C57.7462 16.129 57.9549 16.9173 57.9549 17.8247Z" fill="#0D1B2A"/>
<path d="M73.7687 18.1457C73.7687 19.3662 73.3972 20.3727 72.6546 21.1653C71.9115 21.9314 70.9372 22.3144 69.7314 22.3144C68.6029 22.3144 67.667 21.9181 66.9242 21.1251C66.2008 20.3413 65.8388 19.326 65.8388 18.0789C65.8388 16.9119 66.2103 15.9322 66.9531 15.1392C66.9692 15.1228 66.9863 15.1087 67.0024 15.0926C65.5922 15.104 64.2877 15.1394 63.0733 15.195C62.6993 16.0618 62.5107 17.0224 62.5107 18.0789C62.5107 20.0653 63.1426 21.722 64.4065 23.0492C65.6797 24.3498 67.2811 25 69.2106 25C70.8312 25 72.283 24.4211 73.5661 23.2629V24.6258H76.8363V15.4848C75.5788 15.3595 74.2146 15.2583 72.7085 15.1896C73.4134 15.9726 73.7687 16.9568 73.7687 18.1457Z" fill="#0D1B2A"/>
<path d="M69.7602 11.9057C70.8809 11.9057 71.8011 12.2558 72.5262 12.9474C74.1039 13.0161 75.5277 13.1202 76.8362 13.25V0.000867798H73.5657V11.0639C72.2634 9.81701 70.7874 9.19346 69.1378 9.19346C67.2373 9.19346 65.6601 9.84792 64.4061 11.1575C63.8779 11.701 63.4617 12.3012 63.1543 12.9569C64.3995 12.901 65.7395 12.8665 67.1899 12.8568C67.8993 12.2247 68.755 11.9057 69.7602 11.9057Z" fill="#0D1B2A"/>
<path d="M81.3673 14.0561C80.3631 13.844 79.2942 13.6256 78.1396 13.4006V8.57293H81.294V9.81801C81.8734 9.19785 82.3875 8.77329 82.8361 8.54431C83.294 8.30578 83.8361 8.18652 84.4623 8.18652C85.2941 8.18652 86.1633 8.46321 87.0699 9.01658L85.6259 11.9647C85.0277 11.5258 84.4436 11.3064 83.8735 11.3064C82.4439 11.3064 81.6085 12.2229 81.3673 14.0561Z" fill="#0D1B2A"/>
<path d="M78.3252 15.6045V24.4417H81.488V16.2557C80.5022 16.0203 79.455 15.8539 78.3252 15.6045Z" fill="#0D1B2A"/>
</svg>
