<svg width="28" height="28" viewBox="0 0 28 28" fill="none" xmlns="http://www.w3.org/2000/svg">
<rect opacity="0.25" x="0.583333" y="0.583333" width="26.8333" height="26.8333" rx="5.63889" stroke="#2B2B2B" stroke-width="1.16667"/>
<path d="M20.1511 10.4699C20.0689 10.3874 19.9363 10.3666 19.8276 10.4175C19.7599 10.4491 19.6328 10.4906 19.4818 10.5316C19.6723 10.3004 19.8254 10.0415 19.893 9.80882C19.9222 9.70852 19.8795 9.60279 19.7864 9.54301C19.6934 9.48372 19.5695 9.48372 19.4764 9.54301C19.3298 9.63639 18.6221 9.91702 18.1746 10.0079C17.1634 9.19915 15.9866 9.11515 14.7633 9.76732C13.7688 10.2974 13.5524 11.3755 13.5946 12.0326C11.3184 11.8325 9.90352 10.7347 9.10708 9.82611C9.05135 9.76237 8.96154 9.72878 8.87713 9.73372C8.7884 9.73965 8.70832 9.78461 8.66288 9.85427C8.2863 10.4348 8.18188 11.0766 8.36205 11.7105C8.46052 12.0563 8.63258 12.3611 8.83223 12.6082C8.73646 12.5652 8.64394 12.5113 8.55683 12.4471C8.47675 12.3868 8.36475 12.3755 8.27007 12.4155C8.17593 12.4565 8.11587 12.5434 8.11587 12.6388C8.11587 13.7272 8.86144 14.4535 9.55778 14.8329C9.44524 14.8206 9.32783 14.7978 9.20934 14.7647C9.10762 14.7366 8.99725 14.7647 8.92691 14.8379C8.85657 14.9105 8.8398 15.0142 8.88363 15.1027C9.27481 15.8927 10.0161 16.4361 10.9331 16.6333C10.1324 17.0626 9.06055 17.2731 8.07908 17.1698C7.95193 17.1535 7.83073 17.2271 7.79069 17.3388C7.75066 17.4505 7.80314 17.573 7.91514 17.6303C9.40412 18.3936 10.7503 18.6663 11.9135 18.6663C13.6065 18.6663 14.9132 18.0893 15.7085 17.6066C17.8527 16.3072 19.1891 13.9742 19.003 11.8868C19.3466 11.6551 19.8606 11.2273 20.1793 10.7673C20.2453 10.6744 20.2334 10.5519 20.1511 10.4699Z" fill="#0D1B2A"/>
</svg>
